<svg width="87" height="58" viewBox="0 0 87 58" fill="none" xmlns="http://www.w3.org/2000/svg">
<path d="M54 27.3333C54 24.1227 52.5338 19.222 49.7867 15.1108C47.0397 10.9995 43.1352 7.79521 38.5671 5.90302C33.9989 4.01083 28.9723 3.51575 24.1227 4.48038C19.2732 5.44501 14.8187 7.82603 11.3223 11.3223C7.82603 14.8187 5.44501 19.2732 4.48038 24.1227C3.51575 28.9723 4.01083 33.9989 5.90302 38.5671C7.79521 43.1352 10.9995 47.0397 15.1108 49.7867C19.222 52.5338 24.0555 54 29 54" stroke="black" stroke-width="7" stroke-linecap="round"/>
<path d="M29 34.2373C32.5944 30.5648 36.2015 26.8593 40.1961 23.6137C40.3509 23.488 41.5998 22.2302 41.6823 23.0963C41.7731 24.0497 42.3333 21.2107 41.8694 25.9476C39 35.3774 39.8395 47.0454 39.8395 47.0454C39.8129 49.2522 39.8175 49.8097 39.8175 51.7793C39.8175 52.2086 39.8175 52.5643 39.8175 53.0673C39.8175 53.4285 39.5217 54.0791 39.8175 53.9921C40.3092 53.8475 40.27 53.0674 40.5661 52.649C44.9323 46.4779 64 21.2107 84 29.544" stroke="#5BA4FA" stroke-width="5" stroke-linecap="round"/>
</svg>
