<svg width="24" height="24" viewBox="0 0 24 24" fill="none" xmlns="http://www.w3.org/2000/svg">
<path d="M12 7.38461C13.2241 7.38461 14.398 7.87087 15.2636 8.73642C16.1291 9.60198 16.6154 10.7759 16.6154 12C16.6154 13.2241 16.1291 14.398 15.2636 15.2636C14.398 16.1291 13.2241 16.6154 12 16.6154C10.7759 16.6154 9.60199 16.1291 8.73644 15.2636C7.87089 14.398 7.38463 13.2241 7.38463 12C7.38463 10.7759 7.87089 9.60198 8.73644 8.73642C9.60199 7.87087 10.7759 7.38461 12 7.38461ZM12 9.6923C11.388 9.6923 10.801 9.93543 10.3682 10.3682C9.93545 10.801 9.69232 11.388 9.69232 12C9.69232 12.612 9.93545 13.199 10.3682 13.6318C10.801 14.0646 11.388 14.3077 12 14.3077C12.612 14.3077 13.199 14.0646 13.6318 13.6318C14.0646 13.199 14.3077 12.612 14.3077 12C14.3077 11.388 14.0646 10.801 13.6318 10.3682C13.199 9.93543 12.612 9.6923 12 9.6923ZM9.69232 23.5385C9.40386 23.5385 9.16155 23.3308 9.11539 23.0538L8.68847 19.9961C7.96155 19.7077 7.33847 19.3154 6.73847 18.8538L3.86539 20.0192C3.61155 20.1115 3.30001 20.0192 3.16155 19.7654L0.853856 15.7731C0.783235 15.6542 0.758339 15.5136 0.783823 15.3777C0.809306 15.2418 0.883425 15.1198 0.992318 15.0346L3.42693 13.1192L3.34616 12L3.42693 10.8461L0.992318 8.96538C0.883425 8.88015 0.809306 8.75817 0.783823 8.62226C0.758339 8.48635 0.783235 8.34581 0.853856 8.22692L3.16155 4.23461C3.30001 3.98076 3.61155 3.87692 3.86539 3.98076L6.73847 5.13461C7.33847 4.68461 7.96155 4.2923 8.68847 4.00384L9.11539 0.946148C9.16155 0.669225 9.40386 0.461533 9.69232 0.461533H14.3077C14.5962 0.461533 14.8385 0.669225 14.8846 0.946148L15.3115 4.00384C16.0385 4.2923 16.6615 4.68461 17.2615 5.13461L20.1346 3.98076C20.3885 3.87692 20.7 3.98076 20.8385 4.23461L23.1462 8.22692C23.2962 8.48076 23.2269 8.7923 23.0077 8.96538L20.5731 10.8461L20.6539 12L20.5731 13.1538L23.0077 15.0346C23.2269 15.2077 23.2962 15.5192 23.1462 15.7731L20.8385 19.7654C20.7 20.0192 20.3885 20.1231 20.1346 20.0192L17.2615 18.8654C16.6615 19.3154 16.0385 19.7077 15.3115 19.9961L14.8846 23.0538C14.8385 23.3308 14.5962 23.5385 14.3077 23.5385H9.69232ZM11.1346 2.76922L10.7077 5.78076C9.32309 6.06922 8.10001 6.80769 7.21155 7.83461L4.43078 6.63461L3.56539 8.13461L6.00001 9.92307C5.53847 11.2692 5.53847 12.7308 6.00001 14.0769L3.55386 15.8769L4.41924 17.3769L7.22309 16.1769C8.11155 17.1923 9.32309 17.9308 10.6962 18.2077L11.1231 21.2308H12.8769L13.3039 18.2192C14.6769 17.9308 15.8885 17.1923 16.7769 16.1769L19.5808 17.3769L20.4462 15.8769L18 14.0885C18.4615 12.7385 18.4615 11.2731 18 9.92307L20.4346 8.13461L19.5692 6.63461L16.7885 7.83461C15.8818 6.78498 14.6519 6.06654 13.2923 5.7923L12.8654 2.76922H11.1346Z" fill="black"/>
</svg>
