<svg width="24" height="24" viewBox="0 0 24 24" fill="none" xmlns="http://www.w3.org/2000/svg">
<path d="M14.6 16.4875L17.8375 13.25H5.75V10.75H17.8375L14.6 7.5125L16.375 5.75L22.625 12L16.375 18.25L14.6 16.4875ZM20.75 0.75C21.413 0.75 22.0489 1.01339 22.5178 1.48223C22.9866 1.95107 23.25 2.58696 23.25 3.25V9.0875L20.75 6.5875V3.25H3.25V20.75H20.75V17.4125L23.25 14.9125V20.75C23.25 21.413 22.9866 22.0489 22.5178 22.5178C22.0489 22.9866 21.413 23.25 20.75 23.25H3.25C2.58696 23.25 1.95107 22.9866 1.48223 22.5178C1.01339 22.0489 0.75 21.413 0.75 20.75V3.25C0.75 1.8625 1.8625 0.75 3.25 0.75H20.75Z" fill="white"/>
</svg>
